<svg width="25" height="25" viewBox="0 0 25 25" fill="none" xmlns="http://www.w3.org/2000/svg">
<path d="M12.5 0C5.60708 0 0 5.60762 0 12.5C0 19.3924 5.60708 25 12.5 25C19.3929 25 25 19.3924 25 12.5C25 5.60762 19.3929 0 12.5 0ZM12.5 23.9583C6.18184 23.9583 1.04165 18.8182 1.04165 12.5C1.04165 6.18184 6.18184 1.04165 12.5 1.04165C18.8182 1.04165 23.9583 6.18184 23.9583 12.5C23.9583 18.8182 18.8182 23.9583 12.5 23.9583Z" fill="#FEFEFE"/>
<path d="M17.4693 12.7706L10.1776 8.08307C10.0179 7.97882 9.81143 7.97321 9.64663 8.06373C9.47876 8.15529 9.375 8.33029 9.375 8.52101V17.896C9.375 18.0867 9.47876 18.2617 9.64663 18.3533C9.72393 18.3955 9.8104 18.4169 9.89585 18.4169C9.99351 18.4169 10.0922 18.3894 10.1776 18.3339L17.4693 13.6464C17.6178 13.5508 17.7083 13.3855 17.7083 13.2085C17.7083 13.0315 17.6178 12.8662 17.4693 12.7706ZM10.4167 16.9418V9.47521L16.2242 13.2085L10.4167 16.9418Z" fill="#FEFEFE"/>
</svg>
